<?xml version="1.0" encoding="utf-8"?>
<!-- Generator: Adobe Illustrator 27.5.0, SVG Export Plug-In . SVG Version: 6.00 Build 0)  -->
<svg version="1.1" id="Layer_1" xmlns="http://www.w3.org/2000/svg" xmlns:xlink="http://www.w3.org/1999/xlink" x="0px" y="0px"
	 viewBox="0 0 72 72" style="enable-background:new 0 0 72 72;" xml:space="preserve">
<style type="text/css">
	.st0{fill:#3A752D;}
</style>
<g id="Gb9oXH.tif">
	<g>
		<path class="st0" d="M40.2,61.4c0.1,0,0.1,0.1,0.2,0.2c0.8,0.6,0.8,0.6,0.4,1.5c-0.2,0.3-0.2,0.7-0.3,1.1c0,0.1,0.1,0.3,0.3,0.3
			c0.5,0.2,0.8,0.6,0.9,1.2c0.1,0.4,0.3,0.8,0.6,1.3c-0.5,0.1-1,0.3-1.6,0.4c-0.8,0.2-1.7,0.4-2.5,0.6c-0.3,0.1-0.5,0-0.7-0.3
			c-0.4-0.9-0.8-1.8-0.8-2.8c0-0.5-0.2-1-0.3-1.4c-0.1-0.3-0.6-0.4-1-0.3c-0.5,0.1-1,0.2-1.6,0.2c-0.9,0-1.4-0.5-1.8-1.2
			c-0.2-0.2-0.2-0.5-0.4-0.7c-0.3-0.3-0.6-0.5-0.9-0.7c-1-0.5-2-1-3-1.5c-0.1-0.1-0.3-0.2-0.4-0.2c0.5,0.6,0.9,1.2,1.7,1.4
			c0.5,0.1,1,0.3,1.5,0.6c0.2,0.1,0.4,0.3,0.5,0.5c0.7,1.2,1.3,2.5,1.5,3.8c0,0.3,0,0.6-0.1,0.9c-0.4,0.8-0.9,1.6-1.3,2.4
			c-0.1,0.1-0.2,0.3-0.3,0.3c-0.4,0.2-0.8,0.4-1.2,0.6c-0.1-0.3-0.2-0.7-0.4-1c-0.3-0.5-0.8-0.6-1.3-0.6c-0.8,0.1-1.7,0.1-2.5,0.2
			c-0.3,0-0.6,0-0.7-0.3c-0.3-0.4-0.5-0.8-0.8-1.2c-0.3-0.6-0.8-0.9-1.5-0.9c-1.4,0-2.8,0.1-4.2,0.1c-0.1,0-0.2,0.2-0.4,0.3
			c-0.1,0.2-0.2,0.5-0.4,0.5c-0.5,0-0.7,0.3-0.9,0.7c-0.4,1.1-1.2,1.8-1.9,2.7c-0.2,0.2-0.4,0.4-0.7,0.7c-0.6,0.6-1.2,0.6-1.9,0.3
			c-1.3-0.5-2.2-1.5-3.2-2.5c-0.3-0.3-0.6-0.5-1-0.5c-0.9,0.1-1.6-0.3-2.1-1.1c-0.5-0.8-1.1-1.7-1.5-2.6c-0.2-0.5-0.3-1.1-0.3-1.7
			c0-2,0-4.1,0-6.1c0-0.8-0.2-1.6-0.2-2.4c-0.1-1.3-0.2-2.6-0.3-3.9c-0.1-1,0.2-1.9,0.6-2.8c0.5-1.2,0.8-2.4,1.3-3.5
			c0.5-1.2,1.1-2.3,1.7-3.4c0.6-1.2,1.3-2.4,2-3.5c0.5-0.8,1-1.6,1.5-2.4c0.6-0.8,1.2-1.7,1.8-2.5c0.9-1.2,1.6-2.5,1.7-4
			c0.1-0.6,0.3-1.1,0.7-1.6c0.6-0.6,0.3-2-0.4-2.5C14.1,24.1,14,24,13.9,24c-0.4-0.4-0.8-0.4-1.3,0c-0.6,0.6-0.1,0.1-0.1,0.1
			c-0.4,0.4-1,0.7-0.8,1.6c-1.1-0.5-2.3-0.3-3-1.5c-0.2-0.4-0.7-0.6-1.2-0.6c-0.2,0-0.3,0-0.5,0c0-0.1,0-0.2,0.1-0.3
			c1.6-4,2.6-8.2,3.8-12.3c0.8-2.6,1.4-5.3,2-7.9C13,2.3,13.3,2.1,14,2.4c2.7,1,5.3,2.1,8,3.1c1.4,0.5,2.9,1,4.3,1.6
			c3,1.1,5.9,2.2,8.9,3.3c0.4,0.2,0.8,0.2,0.9-0.3c0,0,0,0,0,0c0.7-0.4,0.7-1.2,1-1.8c0,0,0-0.1,0-0.1c-0.1-0.6,0.4-0.7,0.7-0.9
			c0.5-0.4,1-0.4,1.5-0.2c0.1,0,0.3,0.1,0.4,0c0.4-0.3,0.7-0.2,1,0c0.4,0.2,0.8,0.4,1.1,0.5c0.3,0.2,0.7,0.3,0.7,0.7
			c0,0.1,0.3,0.2,0.4,0.2c1,0,1,0,1.3,1.1c0.2,0.5,0.4,1,0.6,1.6c0,0.1,0.1,0.3,0.1,0.5c0.1,0.8,0.1,1.5,0.3,2.3
			c0,0.2,0.3,0.5,0.5,0.6c1.1,0.5,2.3,0.9,3.4,1.3c0.9,0.4,1.8,0.7,2.8,1.1c0.1-0.3,0.2-0.5,0.4-0.8c4.4,1.5,8.8,2.9,13.2,4.4
			c-0.3,0.5-0.6,1-0.8,1.5c-0.1,0.1-0.2,0.2-0.2,0.3c0.1,1-0.8,1.6-0.8,2.6c0,0.4,0,0.7-0.1,1.1c-0.4,0.2-0.9-0.2-1.3,0.4
			c-0.2,0.4-0.8,0.6-0.4,1.3c-0.3,0-0.6,0-0.8,0c-0.3,0-0.6,0.1-0.5,0.5c0.1,1-0.1,1.1-1,0.7c0.3,0.5,0.8,1,1.2,1.3
			c0.2,0.1,0.2,0.4,0.4,0.6c0.1-0.2,0.3-0.3,0.3-0.5c0.5-1.1,1.1-2.1,1.6-3.2c0.2-0.3,0.3-0.5,0.7-0.5c0.4,0,0.6-0.2,0.7-0.7
			c0-0.3,0.1-0.6,0.2-0.9c0-0.2,0.3-0.5-0.2-0.6c0,0,0-0.1,0-0.2c0-0.9,0.9-1.8,1.8-1.8c0.1,0,0.2,0,0.2,0c0.2,0.6,0.7,0.4,1.1,0.4
			c1.5,0.2,1.8,0.7,1.2,2c-0.2,0.4-0.4,0.8-0.6,1.2c-0.1,0.1-0.1,0.4,0,0.5c0.1,0.2,0.3,0.4,0.6,0.2c0.5-0.3,0.9,0,0.8,0.6
			c-0.1,0.9-0.8,1.4-1.4,1.8c0,0-0.1,0-0.1,0c-1.3,0.2-1.8,1-1.8,2.2c0,0.5-0.1,1-0.2,1.4c-0.1,0.3-0.1,0.6-0.3,0.8
			c-0.7,0.8-1,1.8-1,2.9c-0.9-0.3-1.3,0.5-1.8,0.9c-0.1,0.1,0,0.3,0,0.4c0.4,0.6,0.3,1.2,0.1,1.7c-0.2,0.4-0.3,0.7-0.5,1.1
			c-0.2,0.4-0.6,0.5-0.9,0.1c-0.5-0.7-1.1-1.4-1.5-2.2c-0.6-1-0.6-2.2-0.5-3.3c0-0.4,0.1-0.9,0.2-1.3c-0.8-0.3-1,0.6-1.7,0.6
			c-0.1-0.2-0.2-0.4-0.3-0.6c-0.5-0.8-1-1.6-2.2-1.7c-0.3,0-0.9-1.1-0.8-1.4c0-0.1,0-0.2,0.1-0.2c0.6-0.6,0.2-1.3,0.1-2
			c-0.7,0.2-1.3,0.5-1.9,0.7c0.4,0.7,0.3,1.6,0.4,2.4c0,0.3,0.1,0.6,0.3,0.9c0.3,0.4,0.2,0.8,0,1.2c0.5-0.1,0.9-0.2,1.4-0.3
			c0.4-0.1,0.6,0.1,0.5,0.5c0,0.4,0,0.7-0.1,1.1c0,0.2-0.2,0.4-0.4,0.5c-1.5,0.8-1.3,0.6-0.5,1.9c0.2,0.3,0.2,0.5,0.1,0.9
			c-0.1,0.3,0,0.7,0.1,1c0.2,0.5,0.4,0.9,0.5,1.3c0,0.1,0,0.3-0.1,0.4c-0.4,0.3-0.4,0.9-0.2,1.3c0.2,0.2,0.3,0.5,0.5,0.7
			c0.2,0.3,0.1,0.6-0.2,0.8c-0.2,0.1-0.4,0.2-0.7,0.3c1,0.7,1,1.7,1.1,2.7c-0.7,0.3-0.9,0.8-0.7,1.8c0.1,0.7,0.3,1.4,0.3,2.1
			c0.1,1,0.7,1.6,1.3,2.2c-0.2,0.7-1.2,1.3-0.5,2.3c0.5-0.2,1.1-0.5,1.7-0.7c0.6-0.2,1-0.1,1.2,0.5c0.2,0.7,0.4,1.4,0.5,2.2
			c0.1,0.8,0.7,1.4,1.5,1.6c0.3,0.1,0.7,0.2,1,0.4c0.2,0.1,0.4,0.2,0.6,0.3c0.1,0.1,0.4,0.2,0.4,0.2c0,0.2-0.1,0.5-0.2,0.7
			c-0.4,0.5-0.9,1-1.4,1.5c-0.1,0.1-0.3,0.2-0.5,0.2S61,61.8,61,61.6c-0.1-0.2-0.2-0.4-0.3-0.6c0,0.4-0.2,0.9,0.4,1.2
			c0.2,0.1,0.3,0.5,0.5,0.8c0.1,0.1,0.3,0.3,0.4,0.3c0.9,0.1,1.8,0.5,2.6,0.9c0.8,0.4,1.5,0.9,2.2,1.3c0.3,0.2,0.4,0.8,0.1,1.1
			c-0.6,0.5-0.9,0.5-1.5,0.1c-0.6-0.4-1.2-0.9-1.9-1.1c-0.4-0.1-0.7-0.5-1-0.8c-0.3-0.3-0.7-0.4-1.2-0.5c-0.4,0-0.8-0.2-1.1-0.4
			c-0.3-0.2-0.6-0.5-0.8-0.8c-0.7-1.1-1.8-1.4-3-1.5c-1.7-0.2-3.3,0.3-4.9,1c-0.5,0.2-1,0.3-1.5,0.4c-0.8,0.1-0.9,0.1-1,0.9
			c-0.1,0.6-0.2,1.3-0.3,1.9c-0.1,0.4-0.2,0.5-0.6,0.4c-0.5-0.1-1.1-0.2-1.6-0.3c-0.2-0.1-0.5-0.3-0.6-0.5c-1.1-1.8-1.2-3.8-0.9-5.8
			c0.1-0.8,0.3-1.7,0.5-2.5c0.1-0.5,0.1-0.9-0.2-1.3c-0.2-0.4-0.4-0.8-0.7-1.1c0,0.1,0,0.2,0,0.3c0.1,0.7,0.3,1.4,0.4,2.1
			c0,0.3,0,0.8-0.2,1c-0.5,0.5-0.7,1.1-0.8,1.7c0,0.1-0.1,0.2-0.2,0.2C43,60.1,43,60.5,43,61c0,0.7-0.3,1.1-0.7,1.6
			c-0.4,0.4-0.8,0.3-1-0.2C41,61.9,40.7,61.5,40.2,61.4L40.2,61.4z M52.5,27.1c0-0.9,0.7-0.8,1.1-1c-0.2-0.4-0.4-0.7-0.7-1.1
			c0-0.1-0.2-0.2-0.2-0.2c-0.1,0-0.2,0.1-0.3,0.2C52.2,25.7,51.9,26.4,52.5,27.1L52.5,27.1z M60.8,59.4l-0.1,0.2
			c0.3,0.4,0.6,0.8,1,1.3c0.2-0.4,0.4-0.7,0.6-1.1C61.7,59.6,61.3,59.5,60.8,59.4z M53.7,21.5c0,0-0.1,0-0.1-0.1
			c-0.2,0.8-0.5,1.7-0.7,2.5c0,0,0.1,0,0.1,0C53.6,23.3,53.6,22.4,53.7,21.5L53.7,21.5z"/>
	</g>
</g>
</svg>
