<?xml version="1.0" encoding="utf-8"?>
<!-- Generator: Adobe Illustrator 27.5.0, SVG Export Plug-In . SVG Version: 6.00 Build 0)  -->
<svg version="1.1" id="Layer_1" xmlns="http://www.w3.org/2000/svg" xmlns:xlink="http://www.w3.org/1999/xlink" x="0px" y="0px"
	 viewBox="0 0 72 72" style="enable-background:new 0 0 72 72;" xml:space="preserve">
<style type="text/css">
	.st0{fill:#76ADFF;}
</style>
<path class="st0" d="M12.4,69.5c0.1,0.2,0.1,0.3,0.1,0.5c0,0,0,0-0.1,0c-0.1-0.2-0.2-0.3-0.3-0.5c-0.3,0.3,0.2,0.4,0,0.8
	c-0.1-0.2-0.2-0.4-0.4-0.7c-0.2,0.3,0.1,0.5,0,0.7c-0.3-0.1-0.1-0.7-0.7-0.5c0.1,0.2,0.2,0.4,0.3,0.6c0,0,0,0-0.1,0
	c-0.1-0.2-0.2-0.4-0.4-0.6c-0.2,0.3,0.1,0.5,0.1,0.7c-0.1,0-0.2,0-0.3-0.3c-0.1-0.2-0.1-0.3-0.3-0.2c-0.2,0.1-0.6,0.1-0.4,0.5
	c0.1,0.1,0.1,0.2,0.1,0.3H9.9c-0.1-0.2-0.1-0.4-0.2-0.6c-0.2,0.1-0.6-0.2-0.6,0.3c0,0-0.2,0-0.3,0v0.2c0,0,0,0-0.1,0
	c0-0.1-0.1-0.2-0.1-0.3c-0.1,0.1-0.2,0.2-0.3,0.2c-0.1-0.1-0.1-0.3-0.2-0.5C8,70.2,8,70.3,7.9,70.4c-0.2-0.5-0.5-1-0.7-1.5
	c-0.1-0.2,0-0.4,0-0.6c0,0-0.1,0-0.3-0.1c0-0.2-0.1-0.5-0.1-0.8c0-0.2,0-0.4,0.3-0.5c0.1,0,0.2-0.3,0.2-0.3c-0.3-0.3,0-0.5,0.1-0.7
	c0.2-0.4,0.4-0.8,0.6-1.2c0.4,0.2,0.4-0.2,0.6-0.4c-0.1-0.1-0.2-0.1-0.4-0.2c0.3-0.7,0.6-1.3,0.9-2.1c0.3,0.1,0.6,0.2,0.8,0.4
	c0.2,0.1,0.3,0.1,0.4-0.1c0.2-0.5,0.2-0.6-0.3-0.8c-0.1-0.1-0.3-0.2-0.4-0.2v-0.1c0.3,0.1,0.7,0.3,1,0.4c0,0,0.1-0.1,0.1-0.2
	c-0.4-0.2-0.7-0.3-1.1-0.5c0,0,0-0.1,0.1-0.1c0.2,0.1,0.5,0.2,0.7,0.3c0.3,0.1,0.5,0,0.6-0.3s0.3-0.7,0.4-1
	c-0.4-0.2-0.7-0.3-1.1-0.5v-0.1c0.4,0.1,0.8,0.3,1.2,0.4c0.2-0.4,0.3-0.9,0.5-1.3c-0.4-0.2-0.7-0.3-1-0.5c0.1-0.3,0.3-0.6,0.4-0.9
	c0.3,0.1,0.5,0.2,0.7,0.3c0.1,0,0.2,0,0.3,0c0-0.1-0.1-0.2-0.1-0.2c-0.2-0.1-0.4-0.2-0.7-0.3c-0.1,0-0.1,0-0.1-0.2
	c0.3,0.1,0.5,0.2,0.8,0.3c0.2,0.1,0.3,0.1,0.4-0.2c0-0.1,0.1-0.2,0.1-0.3c-0.3-0.1-0.7-0.2-1-0.4c0,0,0,0,0-0.1c0.1,0,0.3,0,0.4,0.1
	c0.1,0,0.2,0.1,0.4,0.1c0.2,0.1,0.4,0,0.4-0.2c-0.3-0.1-0.7-0.2-1-0.4v-0.1c0.3,0.1,0.7,0.2,1,0.3c0.1-0.2,0.2-0.4,0.2-0.7
	c-0.3-0.1-0.6-0.2-0.9-0.3v-0.1c0.3,0.1,0.6,0.1,0.9,0.2c0.1-0.2,0.1-0.4,0.2-0.5c-0.1-0.1-0.2-0.2-0.3-0.3c0.1,0,0.2,0,0.4-0.1
	c-0.2-0.2-0.4-0.4-0.6-0.6c0.1-0.1,0.2-0.1,0.4-0.2c-0.1-0.1-0.1-0.2-0.2-0.3c0.4,0.1,0.7,0.2,1,0.3c0,0,0-0.1,0.1-0.1l-0.9-0.5
	v-0.1c0.3,0.1,0.6,0.2,0.9,0.4l0.1-0.2c-0.1-0.1-0.2-0.2-0.4-0.3s-0.3-0.1-0.4-0.2v-0.1c0.3,0.1,0.5,0.2,0.8,0.3c0-0.1,0-0.2,0-0.2
	c-0.3-0.2-0.5-0.3-0.8-0.5c0.3,0,0.6,0.2,0.9,0.2c0,0,0-0.1,0.1-0.1c-0.3-0.2-0.5-0.3-0.8-0.5c0,0,0-0.1,0.1-0.1
	c0.2,0.1,0.4,0.1,0.5,0.2c0.2,0.1,0.4,0.3,0.5-0.1c-0.3-0.2-0.6-0.3-0.8-0.5c0,0,0,0,0-0.1c0.2,0.1,0.4,0.2,0.7,0.3
	c0-0.5-0.4-0.4-0.7-0.7c0.1,0,0.2,0,0.3,0s0.2,0.1,0.3,0.2c0.1,0,0.2,0,0.3-0.1c-0.1-0.1-0.1-0.2-0.2-0.2c-0.1-0.1-0.2-0.1-0.4-0.2
	c-0.1,0-0.1-0.1-0.1-0.2c0.2,0.1,0.5,0.2,0.7,0.3c0.1-0.2,0.1-0.2-0.5-0.5c0-0.1,0-0.1,0.1-0.2c0.5,0.4,0.5-0.3,0.8-0.4
	c-0.1-0.2-0.3-0.3-0.4-0.5l0.1-0.1c0.1,0.1,0.2,0.2,0.3,0.3c0.5-0.3,0.2-0.6-0.1-0.9h0.1c0.1,0.1,0.3,0.2,0.3,0.3
	c0.4-0.5,0.7-0.9,1.1-1.4c-0.1-0.1-0.2-0.2-0.3-0.3l0,0c0.1,0.1,0.2,0.2,0.3,0.3c0.2-0.1,0.4-0.2,0.5-0.4c0.1-0.1,0.1-0.3,0-0.4
	c-0.1-0.2-0.2-0.3-0.4-0.5c0.1-0.1,0.1-0.2,0.3-0.3c0.2,0.2,0.3,0.3,0.4,0.5c0.1,0.1,0.2,0.1,0.3,0c0.2-0.3,0.4-0.6,0.8-0.7
	c0.2-0.1,0.4-0.4,0.5-0.6v-0.2c-0.1-0.1-0.2-0.2-0.3-0.3c0-0.1-0.1-0.2-0.1-0.2s0,0,0.1,0c0.3,0.3,0.6,0.5,1,0.8
	c0.1-0.1,0.2-0.2,0.3-0.3c-0.3-0.3-0.6-0.6-0.9-0.8l0.1-0.1c0.3,0.3,0.6,0.6,0.9,0.8c0.1-0.1,0.2-0.2,0.3-0.2
	c-0.2-0.4-0.8-0.6-0.9-1.1c0,0,0,0,0.1,0c0.3,0.3,0.6,0.7,1,1c0.2-0.2,0.3-0.2,0.4-0.4c-0.3-0.3-0.6-0.6-1-0.9v-0.1
	c0.1,0,0.2,0,0.2,0c0.3,0.2,0.6,0.5,0.9,0.8c0.1-0.1,0.2-0.2,0.3-0.4c-0.3-0.3-0.6-0.5-0.9-0.8c0.4-0.1,0.5,0.6,1,0.4
	c-0.2-0.3-0.5-0.5-0.7-0.9c0.5,0,0.6,0.4,0.9,0.5c0-0.1-0.1-0.3-0.4-0.8c0.1-0.1,0.2-0.2,0.3-0.2c0.2,0.2,0.4,0.3,0.6,0.5l0.1-0.1
	c-0.2-0.2-0.4-0.4-0.6-0.7c0,0,0,0,0.1,0c0.2,0.2,0.5,0.3,0.7,0.5c0,0,0-0.1,0.1-0.1c-0.1-0.1-0.3-0.2-0.4-0.4
	c-0.1-0.1-0.1-0.2-0.1-0.2c0.1,0,0.2,0,0.2,0.1c0.2,0.1,0.3,0.3,0.5,0.4l0.1-0.1c-0.2-0.2-0.4-0.5-0.6-0.7c0,0,0,0,0.1,0
	c0.2,0.2,0.5,0.4,0.7,0.6c0.2-0.2,0.4-0.4,0.7-0.7c-0.1,0-0.3-0.1-0.5-0.1c0.1-0.2,0.4-0.1,0.4-0.4h0.4c0,0,0,0,0-0.1
	c-0.1,0-0.1-0.1-0.2-0.2c0.2-0.2,0.4-0.4,0.6-0.6v-0.1c0.1,0,0.3,0.1,0.4,0.1c0.2-0.1,0.4-0.2,0.6-0.4c-0.3,0-0.6-0.1-0.9-0.1v-0.1
	c0.1,0,0.2-0.1,0.3,0c0.6,0.3,0.9-0.2,1.2-0.5c0.2-0.2,0.4-0.5,0.6-0.8s0.7-0.5,0.5-1c0,0,0.1-0.2,0.2-0.2c0.2,0.2,0.4,0.1,0.5-0.1
	c0.7-0.8,1.5-1.5,2.2-2.3c1-1.1,2-2.1,3.1-3.2c0.8-0.8,1.6-1.6,2.3-2.5c0.9-0.9,1.7-1.9,2.7-2.8c0.5-0.5,1-0.9,1.6-1.3
	c0.2-0.1,0.4-0.2,0.4-0.5c0,0,0.2-0.1,0.3-0.1c-0.1-0.1-0.2-0.3-0.4-0.4c0,0,0.1-0.1,0.2-0.2c0.1,0.2,0.2,0.4,0.2,0.5
	c0.3-0.4,0.1-0.6-0.2-0.8c0.5-0.4,0.9-0.8,1.3-1.3c0.3-0.3,0.4-0.1,0.7,0.1c0.3-0.4,0.7-0.7,1-1c0.5-0.6,1.1-1.2,1.6-1.9
	c0.2-0.2,0.2-0.6,0.4-0.8c0.2-0.3,0.4-0.6,0.6-0.9c0.3-0.4,0.5-0.8,0.8-1.2c0.1-0.2,0.4-0.4,0.4-0.6c0.1-0.4,0.1-0.8,0.2-1.2
	c0-0.1,0-0.3,0.1-0.4c0-0.2,0.1-0.5,0.1-0.7c0-0.4,0.2-0.6,0.6-0.7c0.4-0.1,0.8-0.3,1.2-0.4c0.1-0.1,0.3-0.1,0.4-0.3
	c0.3-0.3,0.5-0.6,0.8-1c0.6-0.7,1.2-1.3,1.8-2c0.5-0.5,1-0.9,1.5-1.4c0.3-0.3,0.6-0.7,0.8-1.1c0.1-0.1,0-0.3,0-0.4
	c0.2-0.4,0.4-0.7,0.7-1c0.4-0.5,0.8-1,1.3-1.5c0.3-0.2,0.7-0.4,1-0.5l0.1,0.1l0.1,0.1c0.3-0.2,0.5,0,0.7,0.1C59,1.9,59,2.1,58.8,2.6
	S58.7,3.5,59,3.7c0.1,0.1,0.2,0,0.3,0.1c0-0.1,0-0.2,0-0.3c0-0.2-0.1-0.4-0.2-0.5c0-0.1,0-0.1,0-0.2c0.5,0.3,0.8,0.6,0.6,1.1
	c1,0.2,1.3,0.1,1.5,0C61.6,3.7,61.8,4,62,4.2c0.3,0.2,0.6,0.5,0.9,0.8c0.3,0.4,0.2,0.8,0,1.1c-0.4,0.8-1,1.5-1.6,2.1
	c-0.1,0.1-0.3,0.3-0.4,0.3c-0.1,0-0.3-0.1-0.4-0.1c0.1,0.4-0.2,0.7-0.7,0.9c-0.2,0.1-0.5,0.3-0.7,0.5c-0.1,0.1-0.2,0.3-0.4,0.4
	c-0.1,0.1-0.3,0.2-0.3,0.2c-0.1-0.1-0.2-0.2-0.3-0.4C58,9.9,58,9.8,58,9.7h-0.1c0,0.2,0,0.4,0.1,0.6c0.1,0.3,0,0.6-0.3,0.8
	c-0.1,0.1-0.2,0.2-0.3,0.2c-0.8,0.8-1.5,1.6-2.2,2.4c-0.5,0.6-1.1,1.2-1.6,1.8c-0.3,0.4-0.6,0.9-0.9,1.3c-0.2,0.3-0.5,0.5-0.7,0.8
	c-0.4,0.5-0.8,0.9-1.1,1.4c-0.4,0.5-0.6,1.1-0.7,1.8c-0.1,0.8-0.3,1.6-0.5,2.5s-0.4,1.8-0.6,2.7c-0.2,0.9-0.4,1.8-0.7,2.7
	c-0.2,0.5-0.3,1-0.6,1.5c-0.3,0.6-0.2,1.1,0.1,1.6c0.4,0.9,0.8,1.9,0.6,2.9c-0.2,0.8-0.3,1.6-0.7,2.3c-0.1,0.1-0.1,0.2-0.1,0.3
	c-1.2,0.3-2.3,0.7-3.1,1.7c0,0,0,0.1,0.1,0.1l0.1,0.1c0,0,0,0,0,0.1c-0.1,0-0.2-0.1-0.3-0.2c-0.1,0.1-0.1,0.3-0.2,0.4
	c-0.3,0.3-0.5,0.6-0.9,0.8c-0.3,0.2-0.7,0.3-1,0.4c-0.5,0.1-0.9,0.6-0.9,1.1c0,0.3,0.1,0.6,0.1,0.8c0,0.1,0,0.1,0,0.2
	c0,0.2-0.1,0.3,0,0.5c0.2,0.5-0.1,0.8-0.4,1.1c-0.5,0.5-0.9,0.9-1.5,1.2c-0.6,0.4-1,0.9-1.5,1.3c-0.8,0.7-1.7,1.5-2.6,2.2
	c-0.4,0.3-0.9,0.6-1.3,0.9c-0.3,0.2-0.5,0.4-0.7,0.6c-0.5,0.4-0.9,0.8-1.5,1.1L32,51.8c-0.4,0.3-0.8,0.7-1.1,1
	c-0.5,0.4-0.9,0.8-1.4,1.2c-0.4,0.4-0.9,0.7-1.3,1.1l-0.1,0.2c0.2,0.3,0,0.3-0.2,0.4c-0.1,0.1-0.2,0.2-0.3,0.3
	c-0.3,0.8-0.7,1.6-0.8,2.5c0,0-0.2,0.1-0.3,0.1c-0.1,0-0.2-0.1-0.3-0.2h-0.1c0.1,0.3,0.1,0.5,0,0.8c0,0.1,0.1,0.2,0.1,0.2
	c0.1,0.1,0.2,0.2,0.3,0.3c0,0,0,0-0.1,0.1c-0.1-0.1-0.3-0.2-0.4-0.3c0,0,0,0-0.1,0c0.1,0.1,0.1,0.3,0.2,0.4
	c-0.3,0.1-0.4,0.3-0.3,0.7c0,0.1,0.1,0.2,0.1,0.3c0.4,0.5,0.2,1,0,1.5c-0.1,0.2-0.2,0.3,0,0.4c-0.1,0.1-0.2,0.2-0.3,0.3
	c-0.4,0.7-0.7,1.4-1.1,2.2C24,66.2,23.6,67,23,67.8c-0.3,0.5-0.7,0.8-1.1,1.2c-0.1,0.1-0.3,0.1-0.4,0.1c-0.3,0-0.6-0.2-0.8-0.1
	c-0.3,0.1-0.6,0.1-0.9,0c-0.5,0-1-0.1-1.5-0.2c-0.1,0-0.2,0-0.3,0c0-0.1,0-0.2-0.1-0.3c-0.1,0.1-0.1,0.2-0.3,0.4
	c0.1-0.7-0.3-0.6-0.6-0.6c-0.6-0.1-1.3-0.2-1.9-0.2c-0.3,0-0.6,0.1-0.9,0.2c-0.2,0.1-0.5,0.2-0.7,0.3c-0.3,0.2-0.3,0.4-0.2,0.7
	c-0.1-0.1-0.2-0.3-0.3-0.4L12.9,69c0.1,0.1,0.1,0.3,0.2,0.4c-0.1,0-0.4-0.1-0.2,0.2c-0.1-0.2-0.2-0.3-0.3-0.5
	C12.5,69.5,12.5,69.5,12.4,69.5L12.4,69.5z"/>
</svg>
