<?xml version="1.0" encoding="utf-8"?>
<!-- Generator: Adobe Illustrator 27.5.0, SVG Export Plug-In . SVG Version: 6.00 Build 0)  -->
<svg version="1.1" id="Layer_1" xmlns="http://www.w3.org/2000/svg" xmlns:xlink="http://www.w3.org/1999/xlink" x="0px" y="0px"
	 viewBox="0 0 72 72" style="enable-background:new 0 0 72 72;" xml:space="preserve">
<style type="text/css">
	.st0{fill:#76ADFF;}
</style>
<path class="st0" d="M64.7,16.4c-0.2,0.1-0.3,0.3-0.5,0.4c0.2,0,0.2,0,0.3,0.1c0.1,0,0.2,0,0.2,0c0.4,0.1,0.6,0.4,0.3,0.8
	c-0.1,0.1-0.1,0.2-0.2,0.3c0.1,0.1,0.1,0.2,0.2,0.2c0.1,0.2,0.3,0.3,0.4,0.5c0.2,0.2,0.3,0.5,0.4,0.8c0.1,0.4,0.3,0.7,0.6,1
	c0.3,0.4,0.5,0.8,0.8,1.2c0.1,0.2,0.2,0.3,0.5,0.4c0.4,0.1,0.7,0.5,0.9,0.9c0,0,0,0.1,0,0.2c-0.5,1.3-0.9,2.6-1.4,3.9
	c-0.1,0.2-0.1,0.4-0.2,0.5c-0.2,0.5-0.5,0.8-0.9,1.1c-0.3,0.2-0.6,0.3-0.8,0.5c-0.3,0.2-0.5,0.4-0.7,0.7c-0.4,0.7-0.9,1.3-1.5,1.9
	c-0.4,0.4-0.8,0.8-1.3,1.3c-0.2,0.2-0.3,0.5-0.6,0.7c-0.7,0.7-1.4,1.3-2,2c-1.7,1.8-3.3,3.6-4.7,5.7c-0.1,0.2-0.2,0.2-0.4,0.2
	c-0.3,0-0.6,0.1-0.8,0.4c-0.1,0.2-0.2,0.4-0.4,0.6c-0.2,0.3-0.3,0.6-0.5,0.9c-0.2,0.3-0.4,0.6-0.8,0.8c-0.1-0.1-0.1-0.2-0.2-0.4
	c-0.1,0-0.2,0.1-0.2,0.1c-0.2,0.1-0.3,0.2-0.5,0.3c-0.3,0.1-0.4,0.3-0.5,0.6c-0.1,0.3-0.3,0.7-0.5,1c-0.3,0.5-0.6,0.9-1.1,1.1
	c-0.1,0-0.2,0.1-0.2,0.2c-0.2,0.2-0.3,0.4-0.5,0.5c-0.3,0.3-0.7,0.5-1.2,0.6c-0.1,0-0.3,0.1-0.3,0.2c-0.3,0.3-0.6,0.6-0.9,0.9
	c-0.4,0.5-0.8,1-1.2,1.6c-0.4,0.6-0.8,1.1-1.4,1.6c-0.4,0.4-0.8,0.7-1.3,1c0,0-0.1-0.1-0.1-0.1c-0.1-0.3-0.2-0.5-0.4-0.8
	c-0.3-0.3-0.4-0.6-0.3-1c0-0.3,0.1-0.3,0.4-0.4c0.4,0,0.8-0.1,1.2-0.1c0.2,0,0.3-0.1,0.5-0.2c0.2-0.3,0.5-0.5,0.8-0.8
	c0.2-0.3,0.5-0.5,0.8-0.8c0.2-0.2,0.4-0.5,0.4-0.9c0-0.3-0.1-0.6-0.3-0.8c-0.5-0.7-1.2-0.9-2-0.8c-0.1,0-0.1,0-0.2,0.1
	c-0.2,0.2-0.5,0.3-0.9,0.4c-0.1,0-0.3,0.1-0.4,0.2c-0.2,0.1-0.3,0.2-0.2,0.5c0,0.1,0,0.2,0,0.3c-0.1,0-0.3,0-0.4,0.1
	c0,0.1,0,0.2,0,0.3c0,0.3,0.1,0.6-0.1,0.8c0,0.1,0,0.2,0,0.3c0.1,0.3,0.1,0.6,0,0.9c0,0-0.1,0-0.1,0c-0.3,0-0.4,0.1-0.5,0.3
	c-0.1,0.2-0.3,0.3-0.4,0.5c-0.1,0.1-0.2,0.3-0.2,0.4c0,0.1,0,0.2-0.1,0.2c-1.7,0.9-3.2,2.1-4.9,3.1c-0.8,0.5-1.6,1-2.4,1.4
	c-0.2,0.1-0.3,0.1-0.5,0c-0.2-0.1-0.3-0.1-0.5,0c-0.3,0.2-0.7,0.5-1,0.7c-0.2,0.2-0.5,0.3-0.7,0.5c-0.2,0.1-0.4,0.1-0.5-0.1
	c-0.1-0.1-0.2-0.1-0.4-0.1c-0.4,0-0.9,0.1-1.2,0.4c-0.6,0.3-1,0.8-1.3,1.4c-0.3,0.5-0.6,0.9-0.9,1.4c-0.1,0.1-0.2,0.2-0.3,0.2
	c-0.1,0-0.2,0.1-0.2,0.2c-0.1,0.2-0.3,0.4-0.5,0.5c-0.1,0-0.3,0-0.4-0.1c-0.1-0.1-0.3-0.2-0.4-0.3c-0.1-0.1-0.3-0.1-0.5-0.2
	c-0.2-0.1-0.3-0.2-0.2-0.4c-0.8,0-1.5,0.1-2.2,0.4c0,0-0.1,0-0.1,0c-0.5,0.2-0.9,0.4-1.1,1c-0.1,0.2-0.2,0.4-0.4,0.6
	c-0.1,0.2-0.3,0.3-0.5,0.4c-0.2,0.1-0.4,0.3-0.6,0.5c-0.1,0.2-0.3,0.4-0.4,0.6c-0.4,0.5-1,0.8-1.6,0.7c-0.1,0-0.2,0-0.3,0.1
	c-0.2,0.1-0.4,0.3-0.6,0.4c-0.2-0.1-0.4-0.2-0.6-0.3c-0.5-0.2-1-0.1-1.4,0.1c-0.5,0.2-1,0.4-1.5,0.6c-0.1,0-0.2,0.1-0.2,0.2
	c-0.2,0.2-0.4,0.5-0.6,0.7c-0.4,0.4-0.8,0.6-1.3,0.7c-0.1,0-0.3,0-0.4-0.1c-0.1-0.1-0.2-0.1-0.4,0c-0.5,0.2-0.9,0.1-1.4,0
	c-0.1,0-0.1-0.1-0.2-0.1c-0.6-0.9-1.2-1.9-1.6-3c-0.1-0.5-0.2-0.9-0.3-1.4c0-0.1,0-0.3,0.1-0.4c0.1-0.1,0.2-0.3,0.4-0.4
	c0.2-0.2,0.2-0.3,0.2-0.6c0-0.1,0-0.2,0-0.3c0-0.2,0.1-0.4,0.2-0.5c0.2-0.1,0.2-0.2,0.2-0.5c0-0.1,0.1-0.2,0.1-0.3
	c0.1-0.1,0.2-0.2,0.4-0.3C6.6,59.5,7,59.3,7.1,59c0.2,0,0.3,0.3,0.6,0.2c0-0.1,0.1-0.3,0.1-0.4c0.1-0.2,0.3-0.3,0.4-0.5
	c0.1-0.1,0.2-0.2,0.4-0.1C8.9,58.3,9,58.3,9.2,58c-0.1-0.1-0.1-0.2-0.2-0.2c-0.1-0.2-0.2-0.3-0.3-0.5c-0.1-0.2-0.1-0.3,0-0.5
	c0.1-0.1,0.1-0.2,0-0.3c-0.1-0.4-0.1-0.8-0.1-1.1c0.1-0.4,0.2-0.8,0.3-1.1c0.2-0.7,0.2-1.4,0-2.1c-0.1-0.2-0.1-0.3-0.2-0.5
	c-0.1-0.2-0.3-0.4-0.6-0.4c-0.1,0-0.1,0-0.2-0.1c-0.1-0.2-0.1-0.5,0.1-0.7c0.1-0.1,0.1-0.2,0.1-0.3c-0.2-0.4-0.3-0.8-0.5-1.2
	c-0.1-0.2-0.2-0.3-0.3-0.5c-0.1-0.1-0.1-0.1-0.1-0.2c0.3-0.7,0.8-1.4,1.5-1.8c0,0,0,0,0.1,0c0.1,0.1,0.2,0.2,0.3,0.3
	c0.1-0.1,0.2-0.2,0.3-0.3c0.3-0.3,0.6-0.5,0.9-0.8c0.1-0.1,0.1-0.1,0.2-0.2c0.3-0.1,0.4-0.4,0.4-0.7c0,0,0-0.1,0-0.1c0,0,0,0,0.1,0
	c0.4-0.1,0.8-0.3,1.1-0.6c0.3-0.3,0.6-0.5,0.8-0.8c0.3-0.2,0.6-0.4,1.1-0.4c0.4,0,0.7,0.1,0.9,0.3c0.2,0.1,0.4,0.2,0.6,0.2
	c0.4,0,0.8,0.1,1.1,0.2c0.1,0,0.2,0,0.3-0.1c0.2-0.1,0.5-0.3,0.7-0.4c0.2-0.1,0.4-0.3,0.5-0.5c0.2-0.4,0.4-0.8,0.6-1.1
	c0.1-0.2,0.1-0.4,0-0.6c-0.2-0.5-0.1-1.1,0.1-1.6c0.1-0.3,0.2-0.7,0.3-1c0.1-0.3,0.2-0.7,0.3-1c0.1-0.4,0.3-0.6,0.8-0.7
	c0.3,0,0.6,0,0.9,0c0.2,0,0.3,0,0.5,0s0.3-0.1,0.3-0.2c0.2-0.6,0.5-1.1,0.7-1.7c0.2-0.4,0.2-0.5,0.5-0.6c0.3,0.3,0.7,0.3,1,0.4
	c0,0,0.1,0,0.1,0.1c0.3,0.3,0.6,0.2,1,0.2c0-0.1,0-0.2,0-0.3c-0.1,0-0.1,0-0.2,0c-0.2,0.1-0.4,0-0.6-0.2c-0.1-0.1-0.2-0.2-0.3-0.4
	c-0.2-0.2-0.4-0.3-0.7-0.3c-0.3,0-0.6,0-0.9,0c-0.4,0-0.8-0.1-1.2-0.2c-0.3-0.1-0.6-0.1-0.9,0c-0.2,0.1-0.5,0.2-0.8,0.3
	c0.1-0.1,0.1-0.2,0.1-0.2c0.1-0.1,0.2-0.3,0.3-0.4c0.5-0.5,0.6-1.1,0.5-1.7c0-0.5-0.1-1.1,0-1.6c0-0.2,0.1-0.4,0.2-0.6
	c0.2-0.4,0.5-0.7,0.8-1.1c0.3-0.4,0.6-0.7,0.9-1.1c0.2-0.3,0.4-0.7,0.4-1.1c0-0.6,0.1-1.1,0.4-1.7c0.1-0.1,0.1-0.3,0-0.4
	c-0.1-0.2-0.2-0.5-0.3-0.8c-0.1-0.2-0.2-0.5-0.3-0.7c-0.1-0.5-0.1-0.9,0.2-1.2c0.1-0.1,0.2-0.3,0.1-0.4c0-0.4,0.1-0.7,0.3-1
	c0.1-0.1,0.1-0.2,0.2-0.3c-0.2-0.3-0.3-0.6-0.5-0.8c0-0.1-0.2-0.1-0.2-0.1c-0.3,0-0.5-0.1-0.8-0.2c-0.2-0.1-0.3-0.2-0.3-0.4
	c-0.1-1.1-0.3-2.2-0.2-3.4c0-0.6,0.1-1.3,0.3-1.9c0.2-0.5,0.4-1,0.9-1.3c0.3-0.2,0.5-0.5,0.7-0.8c0.2-0.4,0.4-0.7,0.6-1.1
	c0.2-0.4,0.5-0.6,0.9-0.8c0.1,0,0.1-0.1,0.2-0.2c0.1-0.2,0.3-0.4,0.5-0.6c0.2,0.2,0.3,0.3,0.5,0.6c0.1-0.3-0.1-0.4-0.2-0.6
	C26.2,7.2,26.6,7,27.1,7c0-0.1,0.1-0.1,0.1-0.2c0.1-0.1,0.2-0.2,0.4-0.2c0.2,0,0.4-0.1,0.6,0c0.2,0,0.4,0.1,0.6,0.1
	c0,0.2,0,0.3,0,0.4c0,0.1,0,0.2,0.1,0.2c0.1,0.1,0.2-0.1,0.2-0.1s0.1-0.1,0.2-0.1c0.2-0.1,0.4-0.2,0.5-0.5c0.1-0.2,0.2-0.2,0.4-0.2
	c0.1,0.1,0.3,0.1,0.4,0.2c0.1,0.1,0.1,0.2,0.2,0.3c0.1,0.2,0.2,0.4,0.5,0.4c0.1,0.2-0.1,0.4,0.1,0.6c0.3-0.2,0.6-0.2,0.8,0
	c0.4,0.3,0.1,0,0.1-0.1c0.2-0.1,0.3-0.1,0.4,0C32.8,7.9,33,8,33.2,8c0.2,0,0.4,0,0.6,0.1c0.2,0,0.4,0.1,0.5,0.3
	c0.1,0.1,0.2,0.3,0.1,0.5c0,0,0,0.1,0,0.1c0-0.1,0.1-0.1,0.1-0.2c0.1-0.2,0.2-0.3,0.4-0.2c0.2,0,0.4,0.1,0.6,0.1
	c0.3,0.1,0.5,0.2,0.8,0.2c0,0.2,0.1,0.4,0.1,0.7c0.1,0,0.2,0,0.3-0.1c0.1-0.2,0.1-0.3,0.2-0.4c0.1-0.1,0.2-0.2,0.4-0.3
	c0.1,0.2,0.3,0.5,0.4,0.7c0,0,0,0,0.1,0c0-0.1,0-0.3,0-0.5c0.4-0.2,0.9-0.2,1.3-0.1c0.2,0,0.4,0.1,0.5-0.1c0,0,0.1-0.1,0.1-0.1
	c0.2-0.1,0.4-0.3,0.5-0.5c0,0,0-0.1,0.1-0.1c0.2,0.2,0.3,0.3,0.5,0.5c0.1,0,0.1-0.1,0.2-0.1c0.1,0,0.1-0.1,0.2-0.1
	c0.3-0.1,0.6-0.3,0.8-0.5s0.6-0.1,0.9-0.1c0.2,0,0.3,0,0.5,0.1c0.1,0,0.2,0,0.3,0.1C43.8,8,43.9,8,44,8c0.4-0.1,0.7,0.1,0.8,0.4
	c0,0.1,0.1,0.1,0.2,0.1c0.6-0.1,1.2-0.1,1.8-0.4c0,0,0,0,0.1-0.1V7.7c0.1,0,0.1-0.1,0.2-0.1c0.4-0.1,0.8-0.3,1.2-0.4
	c0.7-0.3,1.4-0.7,2.2-0.9c0.8-0.2,1.5-0.3,2.3-0.2c0.2,0,0.4,0.1,0.5,0.2c0.2,0.1,0.4,0.1,0.6,0c0.4-0.2,0.8-0.2,1.3-0.2
	c0.2,0,0.4-0.1,0.6-0.1c0.3-0.2,0.7-0.4,1-0.6c0.3-0.2,0.6-0.3,0.9-0.5c0.2-0.1,0.5-0.2,0.8-0.1c0.5,0.1,0.9,0.1,1.4,0
	c0.2-0.1,0.4-0.1,0.7-0.1c0.2,0,0.5,0.1,0.6,0.2s0.4,0.3,0.6,0.4c-0.1,0.1-0.2,0.1-0.4,0.2c0.2,0.2,0.3,0.3,0.4,0.5
	c0.2,0,0.3-0.1,0.4,0c0.1,0.1,0.2,0.2,0.4,0.3c0.4,0.4,0.6,0.9,0.6,1.4c0.1,0.6,0.1,1.2,0.1,1.7c0,0.9,0,1.8,0,2.6
	c0,0.7,0.1,1.4,0.3,2c0.2,0.7,0.5,1.4,1,2C64.5,16.3,64.6,16.4,64.7,16.4L64.7,16.4z M42.1,52.8c0.4-0.2,0.8-0.6,0.9-0.8
	c-0.3-0.1-1.2,0-1.4,0.1C41.7,52.4,41.9,52.6,42.1,52.8z"/>
</svg>
