<?xml version="1.0" encoding="utf-8"?>
<!-- Generator: Adobe Illustrator 27.5.0, SVG Export Plug-In . SVG Version: 6.00 Build 0)  -->
<svg version="1.1" id="Layer_1" xmlns="http://www.w3.org/2000/svg" xmlns:xlink="http://www.w3.org/1999/xlink" x="0px" y="0px"
	 viewBox="0 0 72 72" style="enable-background:new 0 0 72 72;" xml:space="preserve">
<style type="text/css">
	.st0{fill:#3A752D;}
	.st1{fill:#FFFFFF;}
</style>
<path class="st0" d="M63.5,31.5v0.9c-0.7,0-0.8,0.1-0.7,0.8c0.1,0.4-0.1,0.7-0.5,0.8c-0.2,0.1-0.3,0.3-0.1,0.4c0,0,0.1,0.1,0.1,0.1
	c0,0.2-0.2,0.6-0.5,0.7c-0.1,0-0.2,0-0.2,0.2c0,0.1,0.1,0.2,0.2,0.2c0.3,0,0.4,0.2,0.5,0.4c0,0.1,0.1,0.2,0.1,0.3
	c0.2,0.3,0.2,0.7,0.5,0.9c0.1,0.1,0.2,0.3,0.1,0.5c-0.1,0.4-0.2,0.8-0.3,1.2c0,0.1,0,0.2,0,0.3c0.1,0.2,0.2,0.5,0.2,0.7
	c0.1,0.5,0,0.5-0.4,0.7c0,0,0,0-0.1,0c-0.5,0.2-1.1,0.2-1.5,0.7c-0.2,0.2-0.5,0.4-0.7,0.5c-0.3,0.2-0.5,0.2-0.7-0.2
	c-0.2-0.4-0.4-0.7-0.5-1.2c-0.1-0.2-0.2-0.5-0.4-0.6c-0.1-0.1-0.2-0.1-0.3,0s-0.1,0.2-0.1,0.3c0.1,0.5,0.4,1,0.7,1.5
	c0.2,0.3,0.2,0.6,0.3,1c0,0,0,0.1,0,0.1c-0.3,0.4-0.7,0.6-1.1,0.7c-0.1,0-0.2,0-0.2,0c-0.3-0.1-0.5-0.3-0.7-0.5
	c0-0.1-0.1-0.2-0.2-0.2s-0.2-0.1-0.3,0c-0.1,0.1-0.1,0.2,0,0.3c0,0,0.1,0.1,0.1,0.1c0.2,0.5,0.4,0.5,0,0.9c-0.4,0.5-0.8,0.9-1.4,1.2
	c-0.5,0.3-0.5,0.8-0.2,1.2c0.1,0.2,0.1,0.3-0.1,0.4c-0.1,0.1-0.2,0.1-0.4,0c-0.2-0.2-0.4-0.2-0.7-0.1c-0.3,0.2-0.7,0.4-0.9,0.7
	c-0.3,0.3-0.5,0.6-0.7,0.9c-0.1,0.2-0.3,0.3-0.5,0.4c-0.2,0-0.5,0.2-0.6,0.3c-0.2,0.2-0.3,0.4-0.1,0.6c0.2,0.3,0.2,0.7,0,1
	c-0.2,0.4-0.2,0.8,0,1.2c0.2,0.4,0.3,0.5,0.8,0.6c0.3,0,0.6,0.1,0.8,0.5c0,0.1,0.1,0.2,0.2,0.2c0.2,0.2,0.2,0.4,0.1,0.6
	c-0.1,0.2-0.2,0.3-0.3,0.5c-0.3,0.2-0.4,0.5-0.5,0.8c-0.1,0.2-0.2,0.4-0.5,0.5c-0.4,0.2-0.8,0.3-1.2,0.5c-0.3,0.1-0.3,0.4-0.1,0.6
	c0.1,0.1,0.2,0.1,0.3,0.1c0.3,0,0.7,0,1.1,0.1c0.1,0,0.2,0,0.3-0.1c0.4-0.2,0.7-0.5,1.1-0.7c0.2-0.1,0.5-0.2,0.7-0.2
	c0.2,0,0.4,0,0.6,0c0.3-0.1,0.7,0.3,0.6,0.6c-0.2,0.5,0,0.9,0.2,1.3c0.3,0.7,0.3,1.5,0.5,2.3c0.1,0.5,0.1,1.1,0.4,1.6
	c0,0,0,0.1,0,0.2c0,0.7,0.1,1.3,0.6,1.8c0.2,0.2,0.2,0.4,0.1,0.7c-0.1,0.2-0.2,0.4-0.3,0.6c-0.3,0.5-0.4,1-1,1.3
	c-0.9,0.4-1.8,0.6-2.8,0.7c-0.5,0.1-1,0.1-1.4,0.4c-0.1,0.1-0.2,0.1-0.2,0c-0.1-0.3-0.4-0.6-0.4-0.9c-0.1-0.4,0-0.9-0.2-1.3
	c0.1,0.1,0.1,0.2,0.2,0.2c0.1-0.2,0.1-0.5-0.1-0.7c-0.2-0.3-0.4-0.6-0.4-1c0-0.4-0.5-0.6-0.8-0.5c-0.5,0.2-1,0.2-1.5,0.2
	c-0.2,0-0.4,0-0.5,0.1c-0.4,0.1-0.7,0.4-1.1,0.3c-0.1,0-0.2,0.1-0.2,0.2c0,0.3,0,0.6,0.3,0.9c0.2,0.2,0.2,0.6-0.1,0.7
	c-0.5,0.1-1.1,0.2-1.6-0.1c-0.3-0.1-0.5-0.3-0.9-0.2c0,0-0.1,0-0.2,0c-0.3,0-0.5-0.2-0.7-0.2c-0.5-0.1-1-0.1-1.5-0.2
	c-0.3,0-0.6,0-0.8,0.1c-0.2,0.1-0.3,0.1-0.5,0.1c-0.5,0-0.9-0.1-1.4-0.1c-1.1-0.1-2.2,0-3.4-0.1c-0.1,0-0.3,0-0.3,0.2
	c0,0.2,0.1,0.2,0.2,0.2c0.5,0.1,1,0.3,1.5,0.4c0.1,0,0.1,0,0.2,0c0.9-0.1,1.8,0,2.7-0.1c0.2,0,0.3,0.1,0.4,0.3
	c0.1,0.5,0.2,1,0.3,1.6c0.1,0.4,0,0.5-0.4,0.5c-0.5,0.1-1,0-1.5,0c-0.6,0.1-1.2,0.1-1.8,0c-0.2,0-0.4,0-0.6,0.1
	c-0.5,0.2-1,0.2-1.5,0.3c-0.3,0.1-0.5,0.2-0.8,0.1c-0.2,0-0.4,0-0.7,0c-0.5,0.1-1,0.2-1.6,0.2c-0.7,0.1-1.5,0.1-2.2,0.3
	c-0.9,0.2-1.7,0.4-2.6,0.5c-0.3,0-0.6,0.1-0.9,0.1c-0.6,0-1.1,0.1-1.7,0.2c-0.9,0.1-1.7,0.3-2.6,0.4c-0.9,0.1-1.8,0.1-2.6,0
	c-0.2,0-0.3-0.1-0.4-0.3c0-0.2-0.1-0.4-0.3-0.5c-0.5-0.4-1-0.6-1.6-0.6c-0.6-0.1-1.2-0.3-1.3-1.1c0-0.1-0.1-0.2-0.1-0.2
	c-0.1-0.2-0.1-0.5,0-0.7c0.1-0.4,0.4-0.8,0.8-0.9c0.6-0.3,1.2-0.6,1.9-0.3c0.5,0.2,0.9,0.2,1.4,0.2c0.2,0,0.5,0,0.6,0.2
	c0,0.1,0.1,0.1,0.2,0.1c0.4,0.1,0.8,0.3,1.3,0.4c0.2,0.1,0.3,0.1,0.5,0.1c0.2,0,0.5,0,0.5-0.2c0-0.2-0.2-0.3-0.4-0.4
	c-0.2-0.1-0.3-0.2-0.3-0.4c0-0.1,0-0.2,0.1-0.4c0-0.1,0-0.2-0.1-0.2c-0.1-0.1-0.1,0-0.2,0c-0.2,0.1-0.3,0.2-0.5,0.3
	c-0.2,0.1-0.5,0.2-0.7,0.1c-0.3-0.1-0.6-0.2-0.8-0.3c-0.4-0.1-0.4-0.4-0.2-0.7c0.3-0.3,0.3-0.4,0-0.7c-0.2-0.2-0.2-0.3,0-0.5
	c0.2-0.2,0.3-0.4,0.2-0.6c0-0.1,0-0.1,0-0.2c0.1-0.1,0.1-0.2,0.2-0.3c0.1-0.2,0.1-0.3-0.2-0.3c-0.3,0-0.4-0.1-0.4-0.3
	c0-0.2-0.1-0.2-0.2-0.2c-0.1-0.1-0.3-0.1-0.3-0.3c0-0.1,0-0.2-0.1-0.3c-0.2-0.5-0.6-0.9-1-1.3c-0.5-0.5-1-0.9-1.6-1.3
	c-0.4-0.3-0.9-0.5-1.5-0.6c-0.2,0-0.4,0-0.6-0.1c-0.3-0.1-0.6-0.1-0.8-0.3c-0.1-0.1-0.2-0.1-0.4-0.2c-0.8-0.2-1.5-0.3-2.3-0.4
	c-0.3,0-0.6-0.2-0.8-0.4c-0.5-0.4-0.9-0.9-1.3-1.4c-0.1-0.1-0.2-0.3-0.3-0.5c-0.1-0.3-0.2-0.5-0.4-0.8c-0.5-0.6-0.8-1.2-0.9-1.9
	c0-0.4-0.3-0.9-0.3-1.3c0-1.2-0.2-2.5,0.1-3.7c0-0.2,0-0.4,0.1-0.6c0.3-0.9,0.7-1.9,1-2.8C8,42.4,8,42.4,7.6,42.1c0,0-0.1,0-0.1-0.1
	c0,0,0.1,0,0.1,0c0.1,0,0.1,0,0.2,0.1c0.1,0,0.3,0.2,0.4,0c0.1-0.2,0.3-0.3,0.1-0.5c-0.1-0.1-0.1-0.2,0-0.4c0.2-0.3,0.4-0.6,0.6-0.8
	c0.1-0.1,0.2-0.1,0.2,0c0.2,0.1,0.4,0.1,0.6-0.1c0.3-0.3,0.3-0.3,0.7-0.1c0.1,0,0.1,0.1,0.2,0.1c0.1,0,0.1,0,0.2,0
	c0.5-0.4,0.6-0.7,0-1.1c-0.2-0.1-0.4-0.2-0.5-0.4c-0.1-0.1-0.1-0.1,0-0.2c0.1-0.1,0.1-0.1,0.2,0c0.1,0,0.1,0.1,0.2,0.2
	c0.2,0.2,0.5,0.3,0.7,0.5c0.1,0.1,0.3,0,0.4-0.1c0.1,0,0.1-0.1,0-0.2c-0.2-0.2-0.2-0.4-0.2-0.7c-0.1-0.3,0.3-0.8,0.5-0.8
	c0.4,0,0.6-0.3,0.5-0.7c-0.1-0.3,0.1-0.6,0.5-0.6c0.1,0,0.1,0,0.1-0.1c-0.1-0.2,0.1-0.2,0.2-0.1c0.1,0,0.1,0.1,0.2,0.1
	c0.1,0,0.1,0.1,0.2,0c0.1,0,0-0.1,0-0.2c0-0.1-0.1-0.1,0-0.2c0.2-0.2,0.1-0.2,0-0.4c-0.1,0-0.1-0.1-0.2-0.2
	c-0.1-0.2-0.1-0.3,0.1-0.3c0.2,0,0.3-0.3,0.3-0.5c0-0.3,0.4-0.8,0.8-0.7c0.1,0,0.2,0,0.3-0.2c0.1-0.4,0.4-0.5,0.6-0.2
	c0.1,0.1,0.2,0.1,0.3,0.2c0.1,0,0.1,0.1,0.2,0c0.1-0.1,0-0.2,0-0.2c-0.1-0.2-0.1-0.4,0-0.5s0.4-0.1,0.6,0c0.4,0.3,0.4,0.3,0.6-0.2
	c0.1-0.2,0.2-0.3,0.3-0.6c0-0.2,0.3,0,0.4,0c0.2,0.1,0.4,0.3,0.6,0.5c0.1,0.1,0.3,0.2,0.4,0c0.1-0.2,0.1-0.3-0.1-0.5
	c-0.3-0.2-0.5-0.4-0.7-0.7c-0.1-0.2-0.4-0.3-0.7-0.3c-0.2,0-0.2,0.2-0.3,0.4c0,0,0,0.1-0.1,0.1c-0.1,0,0-0.1-0.1-0.2
	c0-0.1,0-0.1-0.1-0.2C17,31,17,30.9,17,30.7c0-0.1,0.1-0.2,0-0.3c-0.2-0.1-0.6,0-0.7,0.2c-0.1,0.3-0.2,0.6-0.3,0.9
	c-0.1,0.2-0.2,0.2-0.3,0.3c-0.3,0-0.5,0.1-0.8,0.1c-0.7,0.1-1-0.2-1.1-0.8c-0.1-0.5-0.1-1.1-0.2-1.7c0-0.1-0.1-0.2,0-0.3
	c0.1-0.1,0.3,0,0.4,0.1c0.1,0,0.1,0.1,0.1,0.2c0,0.2,0,0.3,0.1,0.5c0.1,0.5,0.1,0.9,0.2,1.4c0,0.2,0.1,0.3,0.3,0.2
	c0.2-0.1,0.5-0.1,0.7-0.1c0.2,0,0.3-0.1,0.3-0.3c0.1-0.3,0.2-0.6,0.4-0.9c0,0,0-0.1,0-0.1c-0.1-0.3-0.4-0.4-0.7-0.3
	c-0.1,0-0.2,0.1-0.3,0c-0.1-0.1,0.1-0.1,0.2-0.2c0.1,0,0.1,0,0.1-0.1c0-0.1-0.1-0.1-0.1-0.1c-0.1,0-0.2,0-0.2-0.1
	C15,29,14.7,29,14.5,28.9c-0.2-0.1-0.3-0.1-0.5,0c-0.1,0.1-0.2,0.2-0.4,0.1c-0.1-0.1,0-0.2,0.1-0.3c0.1-0.2,0.2-0.3,0.1-0.6
	c-0.1-0.2-0.3-0.4-0.1-0.6c0.1-0.1,0-0.2-0.1-0.2c-0.3-0.1-0.3-0.1-0.1-0.4c0.1-0.1,0.1-0.2,0.1-0.3c0.1-0.1,0.1-0.2,0-0.3
	c-0.1-0.1-0.1-0.2-0.1-0.3c0.1-0.1,0.1-0.2,0.3-0.3c0.6-0.4,1-0.8,1.6-1.2c0.2-0.1,0.4-0.3,0.5-0.5c0.3-0.3,0.7-0.6,1.1-0.8
	c0.1,0,0.2-0.1,0.1-0.1c-0.2-0.3-0.1-0.5,0.2-0.7c0,0,0-0.1,0.1-0.2c0-0.1,0-0.2,0.1-0.2c0.3-0.1,0.2-0.3,0.3-0.5
	c0-0.1,0.2-0.2,0.2-0.3c0.1-0.4,0.1-0.4,0.5-0.3c0.1,0,0.3,0.1,0.4-0.1c0.2-0.5,0.5-0.9,0.6-1.4c0.1-0.4,0.3-0.6,0.5-1
	c0.1-0.2,0.2-0.5,0.2-0.7c0,0,0,0.1,0.1,0.2c0-0.1,0.1-0.2,0-0.4c-0.1,0.1-0.1,0.1-0.1,0.2c-0.1-0.5,0-1,0.5-1.2
	c0.2-0.1,0.4-0.2,0.5-0.4c0.2-0.2,0.7-0.2,0.8-0.1c0.1,0.2,0.3,0.1,0.4,0c0.1-0.1,0.2-0.2,0.4-0.1c0.1,0,0.2,0.1,0.3,0
	c0.1-0.1,0.2-0.1,0.3-0.1c0.8-0.1,1.5-0.3,2.3-0.3c0.3,0,0.4,0.1,0.5,0.3c0.1,0.3,0.3,0.4,0.6,0.2c0,0,0.1,0,0.1,0c0,0,0,0.1,0,0.1
	c0,0.1-0.1,0.2-0.1,0.4c0,0.1,0,0.2,0.1,0.2c0.2-0.1,0.2,0,0.2,0.2c0,0.2,0.2,0.3,0.3,0.3c0.2,0,0.2-0.1,0.2-0.2
	c0-0.2,0.1-0.4,0.2-0.5c0.1-0.2,0.1-0.4-0.1-0.5c-0.1-0.1-0.2-0.2-0.1-0.4c0.1-0.3,0-0.5-0.2-0.6c0,0-0.1-0.1-0.1-0.1
	c-0.1-0.1,0-0.3,0.1-0.2c0.2,0.1,0.3,0,0.4-0.3c0-0.1,0-0.1,0.1-0.2c0.1,0,0.1,0,0.2,0.1c0.1,0.1,0.1,0.2,0.2,0.3
	c0.1,0.1,0.1,0.2,0.3,0.1c0.1-0.1,0-0.2,0-0.3c0-0.4,0-0.7,0.1-1.1c0.1-0.2,0.2-0.4,0.2-0.7c0-0.3,0.1-0.6,0.2-0.9
	c0.2-0.5,0.3-1,0.6-1.4c0.1-0.2,0.3-0.4,0.3-0.6c0,0,0-0.1,0-0.1c0.3-0.1,0.4-0.4,0.5-0.6c0.2-0.3,0.4-0.7,0.4-1.1
	c0-0.3,0.1-0.7,0.1-1c0-0.2,0.1-0.5,0.1-0.7c0-0.5-0.2-0.9-0.3-1.4c-0.1-0.3-0.1-0.6,0-0.9C31,3.7,31,3.5,31,3.2
	c0-0.2,0-0.3,0.2-0.4C31.6,2.6,32,2.3,32.3,2c0.6,0,1.2,0,1.8,0c0.1,0.1,0.2,0.2,0.3,0.2c0.7,0.3,1.4,0.6,2.1,0.9
	c0.5,0.2,0.9,0.7,1.1,1.3c0.1,0.4,0.2,0.8,0.5,1.1c0.5,0.6,1.2,0.8,2,0.8c0.8,0.1,1.2,0.6,1.5,1.2c0.3,0.6,0.4,1.3,0.8,1.9
	c0,0.1,0,0.1,0,0.2c0,0.4,0.1,0.8,0.4,1.1c0,0,0,0.1,0.1,0.1c0.1,0.2,0.1,0.4-0.1,0.6c-0.2,0.2-0.2,0.5,0,0.7
	c0.1,0.1,0.2,0.2,0.3,0.3c0.1,0.1,0.2,0.2,0.2,0.4c0,0.2,0.1,0.3,0.2,0.4c0.1,0.1,0.2,0.2,0.1,0.4c-0.2,0.2-0.1,0.4,0.1,0.5
	c0.9,0.7,1.7,1.3,2.6,2c0.1,0.1,0.2,0.1,0.1,0.3c-0.1,0.3-0.1,0.5,0.2,0.6c0.2,0.1,0.2,0.3,0.1,0.5c-0.1,0.2,0,0.3,0.1,0.4
	c0.2,0.1,0.4,0.3,0.6,0.4c0.4,0.3,0.8,0.6,1.2,0.9c0.1,0.1,0.2,0.2,0.1,0.4c-0.1,0.2-0.1,0.3,0.1,0.4c0.1,0.1,0.1,0.1,0.1,0.2
	c-0.1-0.1-0.1-0.1-0.2-0.2c0,0-0.1-0.1-0.2-0.1c-0.1,0.1,0,0.1,0,0.2c0.2,0.1,0.3,0.3,0.5,0.3c0.2,0.2,0.5,0.3,0.5,0.6
	c0,0.2,0,0.4,0.1,0.6c0.1,0.3,0.2,0.6,0.2,0.9c0,0,0,0.1,0.1,0.2c0.3,0.5,0.7,1,1,1.5c0.1,0.1,0.2,0.1,0.3,0
	c0.1-0.2,0.3-0.3,0.4-0.5c0.2-0.3,0.3-0.3,0.5,0c0.2,0.4,0.3,0.4,0.6,0.1c0.1-0.1,0.1-0.1,0.2-0.2c0.1,0,0.1-0.1,0.2,0
	c0.2,0.2,0.3,0.1,0.4-0.1c0.2-0.3,0.5-0.5,0.8-0.7c0.3-0.2,0.7-0.3,0.9-0.6c0.2-0.3,0.4-0.5,0.6-0.8c0.4-0.5,0.8-0.8,1.3-1.2
	c0.3-0.2,0.5-0.5,0.8-0.6c0.5-0.1,1-0.2,1.5-0.2c0.1,0,0.2,0,0.2,0.1c0.1,0.5,0.2,1,0.3,1.5c0.1,1.1,0.4,2.2,0.5,3.3
	c0,0.2,0.1,0.3,0.3,0.2c0.2-0.1,0.3,0,0.3,0.2c0,0.3,0.1,0.5,0.2,0.8c0,0.1,0,0.2,0.1,0.2c0.2,0,0.2,0.1,0.2,0.3
	c0.2,0.8,0.3,1.7,0.5,2.5c0,0.3,0.1,0.3,0.4,0.3c0.1,0,0.1,0,0.2,0c0.2-0.1,0.3,0,0.4,0.2c0.1,0.5,0.2,0.9,0.3,1.4
	C63.2,31,63.2,31.3,63.5,31.5L63.5,31.5z M45.5,61.8c0.3,0.2,0.2,0.6-0.1,0.8c-0.2,0.1-0.3,0.2-0.5,0.3c-0.1,0-0.2,0.1-0.2,0.3
	c0,0.2,0,0.3,0.2,0.2c0.3-0.1,0.6-0.1,0.9,0c0.1,0,0.2,0,0.2,0c0.2,0,0.2-0.1,0.3-0.2c0-0.5,0.1-1,0.1-1.5c0-0.4-0.2-0.9-0.2-1.3
	c0-0.5-0.2-0.8-0.5-1.1c-0.2-0.1-0.4-0.2-0.5-0.5c0.1,0,0.1,0.1,0.2,0.1c0.1,0,0.1,0.1,0.2,0.1c-0.3-0.6-0.7-1-1.3-1.2
	c0-0.1-0.1-0.2-0.3-0.2c0,0.2,0.2,0.2,0.3,0.3c0.1,0.1,0.1,0.2,0.2,0.3c-0.1,0-0.2-0.1-0.2-0.2c-0.2-0.2-0.3-0.4-0.6-0.5
	c-0.3-0.2-0.5-0.1-0.7,0.2c-0.1,0.3-0.3,0.4-0.5,0.4c-0.2,0-0.3,0.1-0.1,0.3c0.3,0.5,0.8,0.8,1.1,1.3c0,0.1,0.1,0.1,0.2,0.1
	 M48.7,56.8c0.1,0,0.3,0,0.4,0c0.2-0.1,0.5-0.2,0.8-0.2c0.2,0,0.3-0.2,0.4-0.3c0.1,0,0-0.4-0.2-0.5c-0.1,0-0.2-0.1-0.3-0.2
	c-0.1-0.1-0.2-0.2-0.3,0c-0.1,0.1-0.2,0.2-0.3,0.2c-0.2,0.1-0.4,0.1-0.5,0.2c-0.2,0.1-0.3,0-0.4-0.2c0-0.2-0.2-0.2-0.3-0.3
	s-0.3,0-0.5,0c-0.2,0-0.2,0.1-0.2,0.3c0.1,0.1,0.1,0.2,0.2,0.4c0,0.1,0.1,0.2,0,0.2c-0.5,0.2-1,0.4-1.5,0.2c-0.1,0-0.2-0.1-0.2,0
	c-0.1,0.1,0,0.2,0.1,0.2c0.5,0.3,1.1,0.3,1.6,0.2C47.8,56.9,48.2,56.8,48.7,56.8L48.7,56.8z M44.7,55c0-0.1,0-0.2-0.2-0.2
	c-0.1,0-0.2,0-0.2,0.2c0,0.2,0.2,0.2,0.3,0.3C44.7,55.2,44.7,55,44.7,55L44.7,55z M49.6,54.1c0,0.1,0,0.2,0,0.3s0,0.2,0,0.3
	c0,0,0,0.1,0.1,0.1c0,0,0.1,0,0.1,0C49.8,54.7,49.7,54.3,49.6,54.1L49.6,54.1z M41.2,62.6c-0.1,0-0.2,0-0.2,0.1c0,0.1,0,0.2,0.2,0.2
	c0.1,0,0.1,0,0.1-0.2C41.4,62.7,41.3,62.6,41.2,62.6z M43.2,63.8C43.2,63.8,43.2,63.8,43.2,63.8c-0.2-0.1-0.3-0.1-0.5-0.1
	c0,0-0.1,0-0.1,0.1c0,0,0,0.1,0.1,0.1C42.9,63.9,43.1,63.9,43.2,63.8L43.2,63.8z"/>
<path class="st1" d="M44.3,57.8C44.3,57.8,44.2,57.9,44.3,57.8c-0.2,0-0.3-0.1-0.3-0.2C44.1,57.6,44.2,57.7,44.3,57.8L44.3,57.8z"/>
<path class="st1" d="M20.1,17.7c0-0.1,0-0.1,0.1-0.2c0.1,0.1,0,0.2,0,0.4C20.1,17.8,20.1,17.7,20.1,17.7L20.1,17.7z"/>
<path d="M15.9,58.4c-0.1-0.1-0.2-0.2-0.4-0.3C15.8,58.1,15.9,58.2,15.9,58.4C16,58.3,15.9,58.4,15.9,58.4L15.9,58.4z"/>
<path d="M18.1,60.1c-0.2-0.1-0.3-0.2-0.5-0.3C17.8,59.8,18,59.9,18.1,60.1L18.1,60.1z"/>
<path d="M18.1,60.1c0.2,0.1,0.3,0.2,0.4,0.3C18.4,60.4,18.2,60.2,18.1,60.1L18.1,60.1L18.1,60.1z"/>
<path d="M16.3,58.7c0.2,0,0.3,0.1,0.4,0.3C16.6,58.9,16.5,58.8,16.3,58.7z"/>
</svg>
