<?xml version="1.0" encoding="utf-8"?>
<!-- Generator: Adobe Illustrator 27.5.0, SVG Export Plug-In . SVG Version: 6.00 Build 0)  -->
<svg version="1.1" id="Layer_1" xmlns="http://www.w3.org/2000/svg" xmlns:xlink="http://www.w3.org/1999/xlink" x="0px" y="0px"
	 viewBox="0 0 288 288" style="enable-background:new 0 0 288 288;" xml:space="preserve">
<style type="text/css">
	.st0{fill:none;stroke:#000000;stroke-width:8;stroke-linecap:round;stroke-miterlimit:10;}
	.st1{fill:none;stroke:#000000;stroke-width:8;stroke-miterlimit:10;}
	.st2{fill:none;stroke:#000000;stroke-width:8;stroke-linejoin:round;stroke-miterlimit:10;}
	.st3{fill:none;stroke:#000000;stroke-width:8;stroke-linecap:round;stroke-linejoin:round;stroke-miterlimit:10;}
</style>
<line class="st0" x1="40.7" y1="109.7" x2="231.8" y2="109.7"/>
<line class="st0" x1="231.8" y1="137.3" x2="231.8" y2="109.7"/>
<line class="st0" x1="260.2" y1="137.3" x2="231.8" y2="137.3"/>
<line class="st0" x1="260.2" y1="195.5" x2="260.2" y2="137.3"/>
<line class="st0" x1="40.7" y1="195.5" x2="260.2" y2="195.5"/>
<line class="st0" x1="40.7" y1="109.7" x2="40.7" y2="195.5"/>
<path class="st0" d="M185,157.9H90.3c-0.1,0-0.1-0.1-0.1-0.1v-30.9c0-0.1,0.1-0.1,0.1-0.1H185c0.1,0,0.1,0.1,0.1,0.1v30.9
	C185.1,157.9,185.1,157.9,185,157.9z"/>
<line class="st0" x1="209" y1="129" x2="209" y2="150.6"/>
<line class="st0" x1="226.2" y1="150.6" x2="209" y2="150.6"/>
<circle cx="82.5" cy="200.6" r="21.1"/>
<circle cx="187.9" cy="201.8" r="21.1"/>
</svg>
