<?xml version="1.0" encoding="utf-8"?>
<!-- Generator: Adobe Illustrator 27.5.0, SVG Export Plug-In . SVG Version: 6.00 Build 0)  -->
<svg version="1.1" id="Layer_1" xmlns="http://www.w3.org/2000/svg" xmlns:xlink="http://www.w3.org/1999/xlink" x="0px" y="0px"
	 viewBox="0 0 288 288" style="enable-background:new 0 0 288 288;" xml:space="preserve">
<style type="text/css">
	.st0{fill:none;stroke:#000000;stroke-width:8;stroke-linecap:round;stroke-miterlimit:10;}
	.st1{fill:none;stroke:#000000;stroke-width:8;stroke-miterlimit:10;}
	.st2{fill:none;stroke:#000000;stroke-width:8;stroke-linejoin:round;stroke-miterlimit:10;}
	.st3{fill:none;stroke:#000000;stroke-width:8;stroke-linecap:round;stroke-linejoin:round;stroke-miterlimit:10;}
</style>
<path class="st1" d="M62.9,226.1H44c-0.5,0-0.9-0.4-0.9-0.9V94.9c0-0.5,0.4-0.9,0.9-0.9h18.9c0.5,0,0.9,0.4,0.9,0.9v130.3
	C63.8,225.7,63.4,226.1,62.9,226.1z"/>
<path class="st1" d="M112.7,182.2H64.6c-0.5,0-0.9-0.4-0.9-0.9v-12c0-0.5,0.4-0.9,0.9-0.9h48.1c0.5,0,0.9,0.4,0.9,0.9v12
	C113.6,181.8,113.2,182.2,112.7,182.2z"/>
<line class="st0" x1="113.6" y1="226.1" x2="113.6" y2="169.8"/>
<path class="st1" d="M239.6,226.1h17.8c0.5,0,0.9-0.4,0.9-0.9V94.9c0-0.5-0.4-0.9-0.9-0.9h-17.8c-0.5,0-0.9,0.4-0.9,0.9v130.3
	C238.7,225.7,239.1,226.1,239.6,226.1z"/>
<path class="st1" d="M192.4,182.2h45.4c0.5,0,0.9-0.4,0.9-0.9v-12c0-0.5-0.4-0.9-0.9-0.9h-45.4c-0.5,0-0.9,0.4-0.9,0.9v12
	C191.5,181.8,191.9,182.2,192.4,182.2z"/>
<line class="st0" x1="191.5" y1="226.1" x2="191.5" y2="169.8"/>
<ellipse class="st0" cx="151.2" cy="129.1" rx="54.2" ry="12.1"/>
<line class="st0" x1="151.2" y1="226.1" x2="151.2" y2="141.2"/>
<line class="st0" x1="132" y1="226.1" x2="171.7" y2="226.1"/>
</svg>
