<?xml version="1.0" encoding="utf-8"?>
<!-- Generator: Adobe Illustrator 27.5.0, SVG Export Plug-In . SVG Version: 6.00 Build 0)  -->
<svg version="1.1" id="Layer_1" xmlns="http://www.w3.org/2000/svg" xmlns:xlink="http://www.w3.org/1999/xlink" x="0px" y="0px"
	 viewBox="0 0 266.3 101.2" style="enable-background:new 0 0 266.3 101.2;" xml:space="preserve">
<style type="text/css">
	.st0{fill:none;stroke:#000000;stroke-width:8;stroke-linecap:round;stroke-miterlimit:10;}
</style>
<line class="st0" x1="4.5" y1="5" x2="4.5" y2="87.6"/>
<line class="st0" x1="4.5" y1="5" x2="108.3" y2="5"/>
<line class="st0" x1="108.3" y1="87.6" x2="108.3" y2="5"/>
<line class="st0" x1="47.1" y1="29.1" x2="89.2" y2="29.1"/>
<line class="st0" x1="89.2" y1="53.3" x2="89.2" y2="29.1"/>
<line class="st0" x1="47.1" y1="53.3" x2="89.2" y2="53.3"/>
<line class="st0" x1="47.1" y1="29.1" x2="47.1" y2="53.3"/>
<line class="st0" x1="13.6" y1="27.4" x2="28.9" y2="27.4"/>
<line class="st0" x1="13.6" y1="42.7" x2="30.4" y2="42.7"/>
<line class="st0" x1="133.5" y1="70" x2="108.3" y2="70"/>
<path d="M236.1,35.6h-83.6c-5.4,0-9.7,4.3-9.7,9.7v30.4c0,5.4,4.3,9.7,9.7,9.7h83.6c5.4,0,9.7-4.3,9.7-9.7V45.3
	C245.8,40,241.4,35.6,236.1,35.6z M237.7,63.3h-23.4V45.5h23.4V63.3z"/>
<path d="M241.3,86.6h21.4c2,0,3.6-1.6,3.6-3.6V62.9c0-2-1.6-3.6-3.6-3.6h-21.4c-2,0-3.6,1.6-3.6,3.6V83
	C237.7,84.9,239.3,86.6,241.3,86.6z"/>
<circle cx="169.4" cy="88.5" r="12.7"/>
<circle cx="240.4" cy="88.5" r="12.7"/>
<path class="st0" d="M94.9,95.3H74.5c-0.1,0-0.2-0.1-0.2-0.2V73.5c0-0.1,0.1-0.2,0.2-0.2h20.4c0.1,0,0.2,0.1,0.2,0.2v21.6
	C95.1,95.2,95,95.3,94.9,95.3z"/>
<path class="st0" d="M39.1,95.3H18.7c-0.1,0-0.2-0.1-0.2-0.2V73.5c0-0.1,0.1-0.2,0.2-0.2h20.4c0.1,0,0.2,0.1,0.2,0.2v21.6
	C39.3,95.2,39.2,95.3,39.1,95.3z"/>
<line class="st0" x1="4.5" y1="87.6" x2="18.5" y2="87.6"/>
<line class="st0" x1="39.3" y1="87.6" x2="73.6" y2="87.6"/>
<line class="st0" x1="95.1" y1="87.6" x2="108.3" y2="87.6"/>
</svg>
