<?xml version="1.0" encoding="utf-8"?>
<!-- Generator: Adobe Illustrator 27.5.0, SVG Export Plug-In . SVG Version: 6.00 Build 0)  -->
<svg version="1.1" id="Layer_1" xmlns="http://www.w3.org/2000/svg" xmlns:xlink="http://www.w3.org/1999/xlink" x="0px" y="0px"
	 viewBox="0 0 288 288" style="enable-background:new 0 0 288 288;" xml:space="preserve">
<style type="text/css">
	.st0{fill:none;stroke:#000000;stroke-width:8;stroke-linecap:round;stroke-miterlimit:10;}
	.st1{fill:none;stroke:#000000;stroke-width:8;stroke-miterlimit:10;}
	.st2{fill:none;stroke:#000000;stroke-width:8;stroke-linejoin:round;stroke-miterlimit:10;}
	.st3{fill:none;stroke:#000000;stroke-width:8;stroke-linecap:round;stroke-linejoin:round;stroke-miterlimit:10;}
</style>
<line class="st0" x1="16.4" y1="98.4" x2="16.4" y2="181"/>
<line class="st0" x1="16.4" y1="98.4" x2="120.2" y2="98.4"/>
<line class="st0" x1="120.2" y1="181" x2="120.2" y2="98.4"/>
<line class="st0" x1="59" y1="122.5" x2="101.1" y2="122.5"/>
<line class="st0" x1="101.1" y1="146.7" x2="101.1" y2="122.5"/>
<line class="st0" x1="59" y1="146.7" x2="101.1" y2="146.7"/>
<line class="st0" x1="59" y1="122.5" x2="59" y2="146.7"/>
<line class="st0" x1="25.5" y1="120.8" x2="40.8" y2="120.8"/>
<line class="st0" x1="25.5" y1="136.1" x2="42.3" y2="136.1"/>
<line class="st0" x1="145.4" y1="163.4" x2="120.2" y2="163.4"/>
<path d="M248,129h-83.6c-5.4,0-9.7,4.3-9.7,9.7v30.4c0,5.4,4.3,9.7,9.7,9.7H248c5.4,0,9.7-4.3,9.7-9.7v-30.4
	C257.7,133.4,253.3,129,248,129z M249.6,156.7h-23.4v-17.8h23.4V156.7z"/>
<path d="M253.2,180h21.4c2,0,3.6-1.6,3.6-3.6v-20.1c0-2-1.6-3.6-3.6-3.6h-21.4c-2,0-3.6,1.6-3.6,3.6v20.1
	C249.6,178.3,251.2,180,253.2,180z"/>
<circle cx="181.3" cy="181.9" r="12.7"/>
<circle cx="252.3" cy="181.9" r="12.7"/>
<path class="st0" d="M106.8,188.7H86.4c-0.1,0-0.2-0.1-0.2-0.2v-21.6c0-0.1,0.1-0.2,0.2-0.2h20.4c0.1,0,0.2,0.1,0.2,0.2v21.6
	C107,188.6,106.9,188.7,106.8,188.7z"/>
<path class="st0" d="M51,188.7H30.6c-0.1,0-0.2-0.1-0.2-0.2v-21.6c0-0.1,0.1-0.2,0.2-0.2H51c0.1,0,0.2,0.1,0.2,0.2v21.6
	C51.2,188.6,51.1,188.7,51,188.7z"/>
<line class="st0" x1="16.4" y1="181" x2="30.4" y2="181"/>
<line class="st0" x1="51.2" y1="181" x2="85.5" y2="181"/>
<line class="st0" x1="107" y1="181" x2="120.2" y2="181"/>
</svg>
