<?xml version="1.0" encoding="utf-8"?>
<!-- Generator: Adobe Illustrator 27.5.0, SVG Export Plug-In . SVG Version: 6.00 Build 0)  -->
<svg version="1.1" id="Layer_1" xmlns="http://www.w3.org/2000/svg" xmlns:xlink="http://www.w3.org/1999/xlink" x="0px" y="0px"
	 viewBox="0 0 225.3 142.1" style="enable-background:new 0 0 225.3 142.1;" xml:space="preserve">
<style type="text/css">
	.st0{fill:none;stroke:#000000;stroke-width:8;stroke-miterlimit:10;}
	.st1{fill:none;stroke:#000000;stroke-width:8;stroke-linecap:round;stroke-miterlimit:10;}
</style>
<path class="st0" d="M25.2,138.1H6.3c-0.5,0-0.9-0.4-0.9-0.9V6.9C5.4,6.4,5.8,6,6.3,6h18.9c0.5,0,0.9,0.4,0.9,0.9v130.3
	C26.1,137.7,25.7,138.1,25.2,138.1z"/>
<path class="st0" d="M75,94.2H26.9c-0.5,0-0.9-0.4-0.9-0.9v-12c0-0.5,0.4-0.9,0.9-0.9H75c0.5,0,0.9,0.4,0.9,0.9v12
	C75.9,93.8,75.5,94.2,75,94.2z"/>
<line class="st1" x1="75.9" y1="138.1" x2="75.9" y2="81.8"/>
<path class="st0" d="M201.9,138.1h17.8c0.5,0,0.9-0.4,0.9-0.9V6.9c0-0.5-0.4-0.9-0.9-0.9h-17.8c-0.5,0-0.9,0.4-0.9,0.9v130.3
	C201,137.7,201.4,138.1,201.9,138.1z"/>
<path class="st0" d="M154.7,94.2h45.4c0.5,0,0.9-0.4,0.9-0.9v-12c0-0.5-0.4-0.9-0.9-0.9h-45.4c-0.5,0-0.9,0.4-0.9,0.9v12
	C153.8,93.8,154.2,94.2,154.7,94.2z"/>
<line class="st1" x1="153.8" y1="138.1" x2="153.8" y2="81.8"/>
<ellipse class="st1" cx="113.5" cy="41.1" rx="54.2" ry="12.1"/>
<line class="st1" x1="113.5" y1="138.1" x2="113.5" y2="53.2"/>
<line class="st1" x1="94.3" y1="138.1" x2="134" y2="138.1"/>
</svg>
