<?xml version="1.0" encoding="utf-8"?>
<!-- Generator: Adobe Illustrator 27.5.0, SVG Export Plug-In . SVG Version: 6.00 Build 0)  -->
<svg version="1.1" id="Layer_1" xmlns="http://www.w3.org/2000/svg" xmlns:xlink="http://www.w3.org/1999/xlink" x="0px" y="0px"
	 viewBox="0 0 288 288" style="enable-background:new 0 0 288 288;" xml:space="preserve">
<style type="text/css">
	.st0{fill:none;stroke:#000000;stroke-width:8;stroke-linecap:round;stroke-miterlimit:10;}
	.st1{fill:none;stroke:#000000;stroke-width:8;stroke-miterlimit:10;}
	.st2{fill:none;stroke:#000000;stroke-width:8;stroke-linejoin:round;stroke-miterlimit:10;}
	.st3{fill:none;stroke:#000000;stroke-width:8;stroke-linecap:round;stroke-linejoin:round;stroke-miterlimit:10;}
</style>
<path class="st2" d="M25,128.8c30.2-13.9,40.2-36.5,40.2-36.5h181.5c0,0-12.3,28.2-30.5,36.5H25z"/>
<polyline class="st3" points="221.9,212.6 221.9,129.2 49,130.7 49,214.3 "/>
<rect x="122" y="147.5" class="st2" width="69" height="26"/>
<line class="st3" x1="67.6" y1="147.5" x2="89.5" y2="147.5"/>
<line class="st3" x1="67.6" y1="163.5" x2="89.5" y2="163.5"/>
<rect x="168.2" y="198.3" class="st2" width="35.2" height="27.2"/>
<line class="st3" x1="263.1" y1="195.7" x2="223.4" y2="195.7"/>
<rect x="73.4" y="198.3" class="st2" width="35.2" height="27.2"/>
<line class="st2" x1="49" y1="214.3" x2="73.4" y2="214.3"/>
<line class="st2" x1="108.5" y1="214.3" x2="168.2" y2="214.3"/>
<line class="st3" x1="203.3" y1="214.3" x2="221.9" y2="214.3"/>
</svg>
