<?xml version="1.0" encoding="utf-8"?>
<!-- Generator: Adobe Illustrator 27.5.0, SVG Export Plug-In . SVG Version: 6.00 Build 0)  -->
<svg version="1.1" id="Layer_1" xmlns="http://www.w3.org/2000/svg" xmlns:xlink="http://www.w3.org/1999/xlink" x="0px" y="0px"
	 viewBox="0 0 230.2 118.7" style="enable-background:new 0 0 230.2 118.7;" xml:space="preserve">
<style type="text/css">
	.st0{fill:none;stroke:#000000;stroke-width:8;stroke-linecap:round;stroke-miterlimit:10;}
</style>
<line class="st0" x1="5.2" y1="4.4" x2="196.3" y2="4.4"/>
<line class="st0" x1="196.3" y1="32" x2="196.3" y2="4.4"/>
<line class="st0" x1="224.7" y1="32" x2="196.3" y2="32"/>
<line class="st0" x1="224.7" y1="90.2" x2="224.7" y2="32"/>
<line class="st0" x1="5.2" y1="90.2" x2="224.7" y2="90.2"/>
<line class="st0" x1="5.2" y1="4.4" x2="5.2" y2="90.2"/>
<path class="st0" d="M149.5,52.6H54.8c-0.1,0-0.1-0.1-0.1-0.1V21.6c0-0.1,0.1-0.1,0.1-0.1h94.7c0.1,0,0.1,0.1,0.1,0.1v30.9
	C149.6,52.6,149.6,52.6,149.5,52.6z"/>
<line class="st0" x1="173.5" y1="23.7" x2="173.5" y2="45.3"/>
<line class="st0" x1="190.7" y1="45.3" x2="173.5" y2="45.3"/>
<circle cx="47" cy="95.3" r="21.1"/>
<circle cx="152.4" cy="96.5" r="21.1"/>
</svg>
